<svg width="23" height="23" viewBox="0 0 23 23" fill="none" xmlns="http://www.w3.org/2000/svg">
<rect x="0.5" y="0.5" width="22" height="22" rx="1.5" stroke="#1E1F24"/>
<path d="M17.1875 7H5.8125C5.59701 7 5.39035 7.0856 5.23798 7.23798C5.0856 7.39035 5 7.59701 5 7.8125V15.3958C5 15.6113 5.0856 15.818 5.23798 15.9704C5.39035 16.1227 5.59701 16.2083 5.8125 16.2083H17.1875C17.403 16.2083 17.6097 16.1227 17.762 15.9704C17.9144 15.818 18 15.6113 18 15.3958V7.8125C18 7.59701 17.9144 7.39035 17.762 7.23798C17.6097 7.0856 17.403 7 17.1875 7ZM17.0142 7.54167L11.5 11.8046L5.98583 7.54167H17.0142ZM5.54167 15.2848V7.88292L9.71521 11.1085L5.54167 15.2848ZM5.92354 15.6667L10.1458 11.4444L11.3321 12.3625C11.3794 12.399 11.4375 12.4187 11.4973 12.4187C11.5571 12.4187 11.6151 12.399 11.6625 12.3625L12.8542 11.4444L17.0765 15.6667H5.92354ZM17.4583 15.2848L13.2848 11.1085L17.4583 7.88292V15.2848Z" fill="#1E1F24"/>
</svg>
