<svg width="23" height="23" viewBox="0 0 23 23" fill="none" xmlns="http://www.w3.org/2000/svg">
<rect x="0.5" y="0.5" width="22" height="22" rx="1.5" stroke="#1E1F24"/>
<g clip-path="url(#clip0_15_11746)">
<path d="M11.9062 5.40625C8.77813 5.40625 6.21875 7.96563 6.21875 11.0938C6.21875 12.475 6.74688 13.775 7.55938 14.75L6.625 17.5938L9.59063 16.2937C10.2813 16.6187 11.0938 16.7812 11.9062 16.7812C15.0344 16.7812 17.5938 14.2219 17.5938 11.0938C17.5938 7.96563 15.0344 5.40625 11.9062 5.40625Z" stroke="#1E1F24" stroke-width="0.8125" stroke-miterlimit="10" strokeLinecap="round" stroke-linejoin="round"/>
<path d="M15.0344 13.1656C15.1563 12.8 15.1562 12.5156 15.1156 12.4344C15.075 12.3531 14.9938 12.3531 14.8313 12.2719C14.6688 12.1906 13.9375 11.825 13.8156 11.7844C13.6938 11.7437 13.5312 11.7437 13.45 11.9062C13.2875 12.1094 13.1656 12.3125 13.0437 12.4344C12.9625 12.5156 12.8 12.5562 12.6781 12.475C12.5156 12.3937 12.0281 12.2313 11.4594 11.7438C11.0125 11.3375 10.7281 10.85 10.6063 10.6875C10.525 10.525 10.6062 10.4437 10.6875 10.3625C10.7688 10.2812 10.85 10.2 10.9313 10.1188C11.0125 10.0375 11.0531 9.99688 11.0938 9.875C11.1344 9.79375 11.0937 9.67188 11.0531 9.59063C11.0125 9.50938 10.7281 8.77812 10.6063 8.49375C10.525 8.25 10.4438 8.25 10.2812 8.25C10.2406 8.25 10.1594 8.25 10.1188 8.25C9.91563 8.25 9.7125 8.29062 9.59063 8.45312C9.42813 8.61563 9.0625 8.98125 9.0625 9.7125C9.0625 10.4438 9.59062 11.175 9.67188 11.2562C9.75313 11.3375 10.7281 12.8812 12.2312 13.5312C13.4094 14.0188 13.775 13.9781 14.0188 13.9375C14.425 13.8156 14.9125 13.5313 15.0344 13.1656Z" stroke="#1E1F24" stroke-width="0.8125"/>
</g>
<defs>
<clipPath id="clip0_15_11746">
<rect width="13" height="13" fill="white" transform="translate(5 5)"/>
</clipPath>
</defs>
</svg>
